<svg width="200" height="200" viewBox="0 0 200 200" fill="none" xmlns="http://www.w3.org/2000/svg">
<circle cx="100" cy="100" r="100" fill="#54898A"/>
<path d="M99 175.012C96.5586 175.012 94.8496 174.279 93.873 172.814C92.8965 171.447 92.4082 169.689 92.4082 167.541V131.506H54.1758C48.707 131.506 44.5078 130.432 41.5781 128.283C38.7461 126.135 37.3301 122.082 37.3301 116.125V79.0645C37.3301 68.9082 42.2617 63.8301 52.125 63.8301H92.4082V44.4941C92.4082 42.248 92.8965 40.4414 93.873 39.0742C94.8496 37.707 96.5586 37.0234 99 37.0234C101.441 37.0234 103.15 37.707 104.127 39.0742C105.201 40.4414 105.738 42.248 105.738 44.4941V63.8301H145.436C150.904 63.8301 155.055 64.9043 157.887 67.0527C160.816 69.2012 162.281 73.2539 162.281 79.2109V116.125C162.281 126.379 157.301 131.506 147.34 131.506H105.738V167.541C105.738 169.787 105.201 171.594 104.127 172.961C103.15 174.328 101.441 175.012 99 175.012ZM58.8633 118.615H92.4082V76.7207H58.8633C53.3945 76.7207 50.6602 79.4551 50.6602 84.9238V110.412C50.6602 115.881 53.3945 118.615 58.8633 118.615ZM105.738 118.615H140.748C146.217 118.615 148.951 115.881 148.951 110.412V84.9238C148.951 79.4551 146.217 76.7207 140.748 76.7207H105.738V118.615Z" fill="white"/>
</svg>
